<?xml version="1.0" encoding="UTF-8" standalone="no"?>
<!-- Created with Inkscape (http://www.inkscape.org/) -->

<svg
   xmlns:dc="http://purl.org/dc/elements/1.1/"
   xmlns:cc="http://creativecommons.org/ns#"
   xmlns:rdf="http://www.w3.org/1999/02/22-rdf-syntax-ns#"
   xmlns:svg="http://www.w3.org/2000/svg"
   xmlns="http://www.w3.org/2000/svg"
   xmlns:sodipodi="http://sodipodi.sourceforge.net/DTD/sodipodi-0.dtd"
   xmlns:inkscape="http://www.inkscape.org/namespaces/inkscape"
   width="83.22728mm"
   height="79.605446mm"
   viewBox="0 0 83.22728 79.605446"
   version="1.1"
   id="svg8"
   inkscape:version="0.92.5 (2060ec1f9f, 2020-04-08)"
   sodipodi:docname="cachorroIcon.svg">
  <defs
     id="defs2">
    <clipPath
       clipPathUnits="userSpaceOnUse"
       id="clipPath828">
      <rect
         style="opacity:1;fill:#f4f4f4;fill-opacity:0.99677417;stroke:none;stroke-width:0.89999998;stroke-linecap:round;stroke-linejoin:round;stroke-miterlimit:4;stroke-dasharray:none;stroke-dashoffset:0"
         id="rect830"
         width="54.852276"
         height="59.471416"
         x="62.358379"
         y="138.79448" />
    </clipPath>
  </defs>
  <sodipodi:namedview
     id="base"
     pagecolor="#ffffff"
     bordercolor="#666666"
     borderopacity="1.0"
     inkscape:pageopacity="0.0"
     inkscape:pageshadow="2"
     inkscape:zoom="0.32402344"
     inkscape:cx="122.83595"
     inkscape:cy="83.398307"
     inkscape:document-units="mm"
     inkscape:current-layer="layer1"
     showgrid="false"
     inkscape:window-width="1366"
     inkscape:window-height="704"
     inkscape:window-x="0"
     inkscape:window-y="27"
     inkscape:window-maximized="1"
     fit-margin-top="0"
     fit-margin-left="0"
     fit-margin-right="0"
     fit-margin-bottom="0" />
  <metadata
     id="metadata5">
    <rdf:RDF>
      <cc:Work
         rdf:about="">
        <dc:format>image/svg+xml</dc:format>
        <dc:type
           rdf:resource="http://purl.org/dc/dcmitype/StillImage" />
        <dc:title></dc:title>
      </cc:Work>
    </rdf:RDF>
  </metadata>
  <g
     inkscape:label="Camada 1"
     inkscape:groupmode="layer"
     id="layer1"
     transform="translate(-9.3730447,100.92395)">
    <path
       style="fill:#000000;stroke-width:0.77021831"
       d="m 45.610509,-22.424751 c -2.31299,-1.199911 -5.532996,-4.867563 -6.317778,-7.196033 -0.14858,-0.440851 -1.451044,-0.391742 -3.321381,0.125176 -6.766846,1.870327 -16.207528,-1.09194 -21.047301,-6.604121 -3.557792,-4.05211 -4.878217,-7.060692 -5.3415805,-12.170769 -0.402262,-4.436195 -0.363451,-4.557441 1.3775675,-4.303858 1.453147,0.211634 1.957555,0.988276 2.670832,4.112048 2.245671,9.834962 8.362629,15.019271 17.721196,15.019271 7.038826,0 12.828694,-3.793258 15.871004,-10.397961 2.320421,-5.037504 1.952903,-6.875432 -1.820464,-9.103995 -8.295768,-4.89952 -13.802244,-11.848077 -13.953261,-17.607408 -0.0701,-2.671627 0.304907,-3.451558 2.5675,-5.340458 3.247356,-2.711014 6.720386,-3.444805 10.461074,-2.210282 1.558844,0.514472 4.487793,0.935411 6.508769,0.935411 2.020975,0 4.949924,-0.420939 6.508769,-0.935411 3.740687,-1.234523 7.213717,-0.500732 10.461073,2.210282 2.262593,1.8889 2.637552,2.668831 2.567501,5.340458 -0.151026,5.759331 -5.657494,12.707888 -13.953261,17.607408 -3.773367,2.228563 -4.140886,4.066491 -1.820464,9.103995 3.042309,6.604703 8.832177,10.397961 15.871004,10.397961 9.358567,0 15.475524,-5.184309 17.721195,-15.019271 0.713277,-3.123772 1.217686,-3.900356 2.670832,-4.112048 1.741004,-0.253554 1.779838,-0.132454 1.377558,4.303858 -0.984637,10.858928 -9.714968,18.915057 -20.608314,19.016857 -2.753529,0.0262 -5.877642,-0.199117 -6.942476,-0.499858 -1.672122,-0.472116 -2.14462,-0.16564 -3.465985,2.24827 -0.841454,1.537192 -2.45725,3.477909 -3.590649,4.312714 -2.909876,2.143298 -8.804772,2.51507 -12.17296,0.767735 z m 9.840007,-4.592345 c 0.972431,-0.613716 2.151821,-1.958131 2.620869,-2.98757 0.768869,-1.687484 0.481169,-2.270948 -2.923396,-5.928434 -2.076908,-2.231241 -3.949495,-4.056768 -4.161303,-4.056768 -0.211809,0 -2.104514,1.847039 -4.206015,4.104538 -3.711461,3.98699 -3.788228,4.163487 -2.680153,6.161756 1.385522,2.498622 5.910293,4.90986 8.033431,4.281013 0.851675,-0.252389 2.34413,-0.960796 3.316567,-1.574535 z M 27.880137,-42.300523 c -1.177256,-1.418502 0.187734,-3.465997 2.310655,-3.465997 0.743499,0 1.783293,0.519916 2.310655,1.155342 1.177256,1.418502 -0.187735,3.465968 -2.310655,3.465968 -0.7435,0 -1.783296,-0.519886 -2.310655,-1.155313 z m 41.591787,0 c -1.177256,-1.418502 0.187735,-3.465997 2.310655,-3.465997 0.7435,0 1.783296,0.519916 2.310655,1.155342 1.177257,1.418502 -0.187734,3.465968 -2.310655,3.465968 -0.743499,0 -1.783292,-0.519886 -2.310655,-1.155313 z m -46.684986,-6.88038 c -0.82686,-2.154768 0.309257,-3.638419 2.585608,-3.376598 1.685397,0.193876 2.122481,0.640666 2.122481,2.169672 0,1.529035 -0.437084,1.975824 -2.122481,2.169701 -1.384131,0.159235 -2.283591,-0.175828 -2.585608,-0.962775 z m 10.012837,0 c -0.826861,-2.154768 0.309257,-3.638419 2.585608,-3.376598 1.685399,0.193876 2.122484,0.640666 2.122484,2.169672 0,1.529035 -0.437085,1.975824 -2.122484,2.169701 -1.384128,0.159235 -2.283591,-0.175828 -2.585608,-0.962775 z m 31.578951,0 c -0.826861,-2.154768 0.309257,-3.638419 2.585607,-3.376598 1.6854,0.193876 2.122481,0.640666 2.122481,2.169672 0,1.529035 -0.437081,1.975824 -2.122481,2.169701 -1.384128,0.159235 -2.28359,-0.175828 -2.585607,-0.962775 z m 10.012837,0 c -0.826861,-2.154768 0.309259,-3.638419 2.585607,-3.376598 1.6854,0.193876 2.122484,0.640666 2.122484,2.169672 0,1.529035 -0.437084,1.975824 -2.122484,2.169701 -1.384128,0.159235 -2.283588,-0.175828 -2.585607,-0.962775 z M 19.921217,-87.10161 c -0.730013,-0.730006 -0.635592,-4.457417 0.166193,-6.560891 1.105248,-2.89965 4.69378,-5.9551 8.057963,-6.860989 6.200085,-1.6695 12.505933,2.022019 14.431286,8.448274 0.843328,2.814793 0.806774,3.407601 -0.276959,4.491331 -1.030151,1.030137 -1.457376,1.0752 -2.442517,0.257629 -0.656694,-0.54498 -1.193983,-1.841625 -1.193983,-2.881398 0,-2.711479 -3.93705,-6.393302 -6.836473,-6.393302 -4.728402,0 -8.567894,3.3975 -8.567894,7.581539 0,0.822957 -0.548243,1.706668 -1.218323,1.963802 -1.508535,0.578865 -1.494131,0.579185 -2.119287,-0.046 z m 39.517584,-0.666283 c -1.374478,-1.656161 0.274978,-6.895606 3.041913,-9.66254 7.228986,-7.228977 20.084922,-2.258052 20.084922,7.7661 0,1.218308 -0.31532,2.409951 -0.700712,2.648134 -1.233176,0.762145 -3.15038,-0.456949 -3.15038,-2.003247 0,-4.184039 -3.839492,-7.581539 -8.567894,-7.581539 -2.86458,0 -6.836473,3.679727 -6.836473,6.333567 0,1.741572 -1.248368,3.67929 -2.370393,3.67929 -0.28703,0 -0.962463,-0.53089 -1.500983,-1.179765 z"
       id="path832"
       inkscape:connector-curvature="0"
       sodipodi:nodetypes="cccccccscccscscscccsccccccccccccsccccsscsscssscccsccccsccccsccccsccccccccsssccccsscssssc" />
  </g>
</svg>
