<?xml version="1.0" encoding="UTF-8" standalone="no"?>
<!-- Created with Inkscape (http://www.inkscape.org/) -->

<svg
   xmlns:dc="http://purl.org/dc/elements/1.1/"
   xmlns:cc="http://creativecommons.org/ns#"
   xmlns:rdf="http://www.w3.org/1999/02/22-rdf-syntax-ns#"
   xmlns:svg="http://www.w3.org/2000/svg"
   xmlns="http://www.w3.org/2000/svg"
   xmlns:sodipodi="http://sodipodi.sourceforge.net/DTD/sodipodi-0.dtd"
   xmlns:inkscape="http://www.inkscape.org/namespaces/inkscape"
   width="82.524834mm"
   height="70.531433mm"
   viewBox="0 0 82.524834 70.531433"
   version="1.1"
   id="svg8"
   inkscape:version="0.92.5 (2060ec1f9f, 2020-04-08)"
   sodipodi:docname="gatoIcon.svg">
  <defs
     id="defs2" />
  <sodipodi:namedview
     id="base"
     pagecolor="#ffffff"
     bordercolor="#666666"
     borderopacity="1.0"
     inkscape:pageopacity="0.0"
     inkscape:pageshadow="2"
     inkscape:zoom="0.16201172"
     inkscape:cx="-763.94659"
     inkscape:cy="185.03147"
     inkscape:document-units="mm"
     inkscape:current-layer="layer1"
     showgrid="false"
     fit-margin-top="0"
     fit-margin-left="0"
     fit-margin-right="0"
     fit-margin-bottom="0"
     inkscape:window-width="1366"
     inkscape:window-height="704"
     inkscape:window-x="0"
     inkscape:window-y="27"
     inkscape:window-maximized="1" />
  <metadata
     id="metadata5">
    <rdf:RDF>
      <cc:Work
         rdf:about="">
        <dc:format>image/svg+xml</dc:format>
        <dc:type
           rdf:resource="http://purl.org/dc/dcmitype/StillImage" />
        <dc:title></dc:title>
      </cc:Work>
    </rdf:RDF>
  </metadata>
  <g
     inkscape:label="Camada 1"
     inkscape:groupmode="layer"
     id="layer1"
     transform="translate(30.647189,-76.376034)">
    <path
       style="fill:#000000;stroke-width:0.37167108"
       d="m -0.64251536,146.61251 c -1.99682904,-0.50525 -3.29199804,-1.24052 -4.67267904,-2.65271 -1.31979,-1.34993 -1.45407,-2.72905 -0.33396,-3.43038 0.53821,-0.33699 0.91046,-0.13739 2.17619,1.16664 0.9632,0.99238 2.09567,1.7277 3.06743904,1.99173 1.73991096,0.47274 6.93761096,0.25008 8.50935196,-0.36455 l 1.02212,-0.39967 v -5.00572 -5.00572 l -2.07995,-1.96711 c -2.75158,-2.60232 -4.103212,-4.87979 -3.57895,-6.03042 0.7279,-1.59754 2.834719,-2.26551 7.1455594,-2.26551 4.310851,0 6.41767,0.66797 7.14555,2.26551 0.524301,1.15063 -0.82736,3.4281 -3.57894,6.03042 l -2.079921,1.96711 v 5.11852 5.11852 l 1.88673,0.43549 c 4.692902,1.08326 9.046642,0.2174 10.794521,-2.14679 0.94061,-1.27222 2.019009,-1.3898 2.705151,-0.29494 0.990478,1.58045 -2.484951,4.76783 -5.993911,5.49715 -2.427351,0.50451 -6.452809,0.27482 -9.081479,-0.5182 -1.491011,-0.4498 -2.010402,-0.4494 -3.7167104,0.003 -2.571502,0.68144 -7.544192,0.9413 -9.33611196,0.48789 z M 13.107617,128.562 c 1.08077,-1.1429 1.965049,-2.29981 1.965049,-2.57089 0,-0.46792 -2.852031,-1.29783 -4.46006,-1.29783 -1.6080214,0 -4.4600604,0.82991 -4.4600604,1.29783 0,0.68059 3.807119,4.6489 4.4600604,4.6489 0.29146,0 1.414219,-0.9351 2.495011,-2.07801 z m -33.317061,5.02084 c -6.077521,-0.7271 -7.295791,-1.19383 -6.486931,-2.48521 0.22739,-0.36315 0.97063,-0.69232 1.70603,-0.75564 1.70758,-0.14701 13.755091,1.3451 14.164281,1.75429 0.17413,0.174 0.26038,0.71196 0.19196,1.19548 -0.1108,0.7826 -0.32843,0.88451 -1.98273,0.92812 -1.0221,0.027 -4.43877,-0.25973 -7.59261,-0.63704 z m 52.255121,0.5261 c -0.35913,-0.35911 -0.3042,-1.9035 0.0759,-2.13851 0.552651,-0.34155 12.716701,-1.74701 14.093862,-1.62844 0.735431,0.0633 1.47864,0.39249 1.70606,0.75564 0.825079,1.31727 -0.37247,1.73493 -7.218072,2.5174 -7.018959,0.80229 -8.277709,0.8741 -8.657899,0.49391 z m -48.193391,-5.90502 c -0.30662,-0.0747 -3.48442,-0.40053 -7.061731,-0.72401 -6.87211,-0.62142 -8.03778,-0.99833 -7.20302,-2.32901 0.27521,-0.43871 0.98279,-0.67623 2.22372,-0.74645 2.49599,-0.14124 16.134261,1.26001 16.577481,1.70323 0.19698,0.19702 0.30224,0.75382 0.23392,1.23734 -0.11232,0.79423 -0.3218,0.88471 -2.16857,0.93694 -1.12431,0.0318 -2.29508,-0.004 -2.6017,-0.078 z m 48.831679,-0.32973 c -0.425619,-1.10918 0.0447,-1.8471 1.345912,-2.11239 2.12017,-0.43219 14.603799,-1.5092 15.95701,-1.37666 0.68684,0.0673 1.43006,0.41185 1.651619,0.76576 0.862021,1.37682 -0.282649,1.69972 -8.857001,2.49884 -9.715738,0.90548 -9.835168,0.90814 -10.09754,0.22445 z m -44.671379,-17.42324 c 0.19975,-2.40858 1.0673,-3.69486 3.2057396,-4.75301 2.76351,-1.36745 5.505719,-0.52851 7.407899,2.26636 0.93634204,1.37575 1.14848204,3.99567 0.348432,4.30269 -0.268332,0.10297 -1.229992,-0.14951 -2.137111,-0.56102 -2.08698,-0.94677 -4.17545,-0.95112 -6.24284,-0.0131 -2.5534496,1.15866 -2.7724496,1.05332 -2.5821196,-1.242 z m 33.750189,0.2556 c 0,-2.28794 1.070721,-3.95751 3.198731,-4.98765 2.736731,-1.32484 5.40399,-0.61385 7.31888,1.95092 0.843701,1.13005 1.291169,4.1654 0.670571,4.54893 -0.230662,0.14254 -1.343361,-0.0865 -2.472672,-0.50907 -2.564588,-0.95954 -3.730609,-0.96429 -6.113838,-0.0251 -1.037191,0.40884 -2.046931,0.74334 -2.243762,0.74334 -0.19675,0 -0.35791,-0.7747 -0.35791,-1.72156 z m -51.29041,-14.817498 c -0.61098,-0.736192 1.46317,-6.89525 4.2638,-12.661075 2.11645,-4.35729 4.25424,-6.851943 5.871741,-6.851943 2.57656,0 5.9643,4.465012 8.78791,11.582465 1.0691696,2.694988 0.9427796,3.801301 -0.45252,3.96137 -0.92325,0.105906 -1.11235,-0.06292 -1.66495,-1.486686 -1.9978,-5.147171 -5.49912,-11.083783 -6.53703,-11.083783 -1.17303,0 -4.284021,6.041126 -6.746791,13.101406 -1.21265,3.476468 -1.50189,3.995464 -2.22671,3.995464 -0.45816,0 -1.04109,-0.250738 -1.29545,-0.557218 z m 76.753601,-3.438246 c -1.863839,-5.325258 -4.68021,-11.217766 -5.891369,-12.326278 -0.960332,-0.878923 -0.996241,-0.883136 -1.74566,-0.204906 -1.193041,1.079658 -3.224112,4.637164 -4.810022,8.424878 -1.339199,3.198397 -1.524929,3.455876 -2.49278,3.455876 -1.543219,0 -1.518258,-1.285075 0.100053,-5.151077 2.576949,-6.156089 5.874578,-10.267955 8.237778,-10.271885 1.0874,-0.002 3.54121,2.231824 4.669459,4.250527 1.274622,2.280557 3.697243,8.059886 4.883513,11.649909 1.102748,3.337481 0.959339,4.168415 -0.719543,4.168415 -0.724529,0 -1.015187,-0.5204 -2.231459,-3.995463 z"
       id="path864"
       inkscape:connector-curvature="0" />
  </g>
</svg>
