<?xml version="1.0" encoding="UTF-8" standalone="no"?>
<!-- Created with Inkscape (http://www.inkscape.org/) -->

<svg
   xmlns:dc="http://purl.org/dc/elements/1.1/"
   xmlns:cc="http://creativecommons.org/ns#"
   xmlns:rdf="http://www.w3.org/1999/02/22-rdf-syntax-ns#"
   xmlns:svg="http://www.w3.org/2000/svg"
   xmlns="http://www.w3.org/2000/svg"
   xmlns:sodipodi="http://sodipodi.sourceforge.net/DTD/sodipodi-0.dtd"
   xmlns:inkscape="http://www.inkscape.org/namespaces/inkscape"
   width="96.255714mm"
   height="96.267235mm"
   viewBox="0 0 96.255714 96.267235"
   version="1.1"
   id="svg8"
   inkscape:version="0.92.5 (2060ec1f9f, 2020-04-08)"
   sodipodi:docname="icon.svg">
  <defs
     id="defs2" />
  <sodipodi:namedview
     id="base"
     pagecolor="#ffffff"
     bordercolor="#666666"
     borderopacity="1.0"
     inkscape:pageopacity="0.0"
     inkscape:pageshadow="2"
     inkscape:zoom="0.57200397"
     inkscape:cx="208.12417"
     inkscape:cy="68.286749"
     inkscape:document-units="mm"
     inkscape:current-layer="layer1"
     showgrid="false"
     inkscape:window-width="1366"
     inkscape:window-height="704"
     inkscape:window-x="0"
     inkscape:window-y="27"
     inkscape:window-maximized="1"
     inkscape:snap-object-midpoints="false"
     fit-margin-top="0"
     fit-margin-left="0"
     fit-margin-right="0"
     fit-margin-bottom="0" />
  <metadata
     id="metadata5">
    <rdf:RDF>
      <cc:Work
         rdf:about="">
        <dc:format>image/svg+xml</dc:format>
        <dc:type
           rdf:resource="http://purl.org/dc/dcmitype/StillImage" />
        <dc:title></dc:title>
      </cc:Work>
    </rdf:RDF>
  </metadata>
  <g
     inkscape:label="Camada 1"
     inkscape:groupmode="layer"
     id="layer1"
     transform="translate(-93.433814,-113.8003)">
    <g
       id="g903"
       transform="matrix(1.4243794,0,0,1.4243794,-69.958666,-111.54693)">
      <path
         inkscape:connector-curvature="0"
         id="path871"
         d="m 135.93285,225.74142 c -8.33733,-0.61171 -12.52708,-1.99864 -15.81619,-5.23562 -2.55962,-2.51905 -4.06755,-5.93921 -4.82243,-10.93783 -0.89485,-5.92542 -0.71746,-32.53136 0.24571,-36.85423 1.51111,-6.78206 4.57796,-10.59004 10.16113,-12.61662 4.65604,-1.69005 9.03469,-2.01303 25.1283,-1.85357 13.35417,0.13232 15.49179,0.29961 19.49931,1.52595 6.81965,2.08688 10.53374,7.1409 11.47397,15.61343 0.83608,7.53406 0.53437,31.49819 -0.45455,36.1034 -1.79257,8.34766 -6.18938,12.28317 -15.38505,13.7709 -2.29259,0.37091 -5.04395,0.46098 -15.7427,0.51535 -7.13052,0.0362 -13.5599,0.0222 -14.2875,-0.0312 z"
         style="fill:#23395b;fill-opacity:1;stroke-width:0.26458335" />
      <path
         inkscape:connector-curvature="0"
         id="path899"
         d="m 127.17683,211.12267 c -0.0542,-0.0914 0.24207,-1.31231 0.65855,-2.71322 0.83487,-2.80824 2.82761,-10.49957 3.04939,-11.76963 l 0.14074,-0.80595 -1.3527,-0.23828 c -2.91247,-0.51302 -5.14355,-2.07308 -6.22315,-4.35147 -0.6496,-1.37094 -0.87505,-3.47699 -0.40341,-3.76849 0.12466,-0.077 0.94694,-0.0317 1.82729,0.10064 3.22488,0.48497 6.15573,2.52654 7.17092,4.99512 0.22544,0.54818 0.53607,0.99707 0.6903,0.99752 0.38936,8.4e-4 5.08048,-1.68941 10.34052,-3.72648 l 4.41929,-1.71146 3.27127,-7.51036 c 1.79921,-4.13072 3.41599,-7.65509 3.59286,-7.83197 0.28112,-0.28111 0.53038,0.0934 1.98096,2.97603 l 1.65939,3.2976 0.8021,-1.7719 c 1.00258,-2.21476 1.10069,-2.39378 1.35925,-2.47996 0.11543,-0.0385 1.10345,1.72604 2.19559,3.92115 l 1.98571,3.9911 2.1076,0.80668 c 4.58533,1.755 6.99793,2.67274 7.36794,2.80272 0.21318,0.0749 0.38761,0.2742 0.38761,0.4429 0,0.16871 -0.64164,1.65707 -1.42584,3.30746 -2.19786,4.6254 -2.33971,4.68942 -9.4242,4.25291 -4.31594,-0.26592 -4.99084,-0.35902 -5.76769,-0.79564 -1.11882,-0.6288 -1.87753,-2.07486 -1.69118,-3.22323 0.16597,-1.02273 0.22766,-1.06701 1.02573,-0.73644 0.54929,0.22752 0.67157,0.40682 0.67157,0.98475 0,0.84519 0.62981,1.59037 1.48528,1.75736 1.19545,0.23335 8.74367,0.62485 9.4592,0.49061 0.39795,-0.0747 0.9272,-0.35846 1.17613,-0.63068 0.46915,-0.51307 2.41147,-4.54095 2.25439,-4.675 -0.0892,-0.0761 -5.8899,-2.32057 -11.49566,-4.44798 l -2.99009,-1.13476 -1.34585,-2.72315 c -0.74023,-1.49774 -1.4278,-2.72122 -1.52794,-2.71885 -0.10014,0.003 -1.44848,2.92606 -2.99629,6.4971 l -2.8142,6.49279 -5.23074,2.02554 c -2.87692,1.11404 -6.50445,2.46555 -8.06119,3.00335 -2.71226,0.93698 -2.83312,1.00499 -2.89439,1.62902 -0.17584,1.79097 -1.6157,7.63149 -3.12276,12.66693 l -0.21544,0.71983 h 2.98188 2.98188 l 0.9839,-2.15951 c 1.50798,-3.30976 1.45696,-3.23843 2.44024,-3.41193 0.48421,-0.0854 3.36173,-0.61103 6.3945,-1.16799 3.03277,-0.55696 5.62622,-1.01264 5.76323,-1.01264 0.24423,0 0.17145,2.26592 -0.201,6.25703 l -0.13952,1.49504 h 2.13076 2.13076 l 1.65151,-3.48844 c 0.90834,-1.91863 2.22301,-4.70632 2.92151,-6.19485 0.80773,-1.72132 1.39432,-2.7089 1.61156,-2.71323 0.21192,-0.004 0.90134,1.02301 1.81639,2.70642 0.81116,1.49228 2.46855,4.54458 3.68309,6.78288 1.21454,2.23831 2.15564,4.20679 2.09132,4.37439 -0.0935,0.24376 -0.95328,0.30474 -4.29653,0.30474 h -4.17959 l -1.27004,-1.81247 -1.27003,-1.81248 -0.74565,1.64398 c -0.41011,0.90419 -0.86245,1.71828 -1.0052,1.80908 -0.14276,0.0908 -3.66039,0.16663 -7.81697,0.1685 l -7.5574,0.003 -0.9552,-1.99339 c -0.52537,-1.09637 -1.01607,-1.9934 -1.09044,-1.9934 -0.0743,0 -0.57492,0.89703 -1.11231,1.9934 l -0.97708,1.99339 h -4.48187 c -2.46503,0 -4.52628,-0.0748 -4.58056,-0.16612 z m 21.88272,-4.66508 0.15766,-2.72707 -0.85084,0.14392 c -1.31736,0.22283 -1.62605,0.33678 -1.62605,0.60026 0,0.57194 1.88469,5.22747 2.0165,4.98111 0.0798,-0.14914 0.21601,-1.49834 0.30273,-2.99822 z m -2.54071,2.80433 c 0,-0.14022 -0.37377,-1.23645 -0.83059,-2.43604 -0.54189,-1.42301 -0.9462,-2.1812 -1.16325,-2.18141 -0.18297,-1.8e-4 -1.3788,0.19901 -2.65741,0.44266 -1.27861,0.24363 -2.35087,0.44297 -2.38278,0.44297 -0.0319,0 0.39247,0.89702 0.94311,1.99339 l 1.00113,1.99339 h 2.5449 c 1.77168,0 2.54489,-0.0774 2.54489,-0.25496 z m 19.13506,-0.46487 c -0.78926,-1.54693 -4.56455,-8.36117 -4.63235,-8.36117 -0.0931,0 -2.24211,4.49713 -2.42618,5.0771 -0.0996,0.31385 0.20099,0.95643 1.03452,2.21137 l 1.17492,1.76897 2.60818,0.0118 2.60817,0.0118 -0.36726,-0.71983 z m -34.86072,-14.90607 c 0,-0.33184 -0.77722,-1.55221 -1.49352,-2.34507 -0.88409,-0.97858 -2.408,-1.84203 -3.80501,-2.15592 -0.7331,-0.16472 -0.90313,-0.14273 -0.90313,0.11677 0,0.92388 1.55329,2.92421 2.7686,3.56539 1.26561,0.66771 3.43306,1.18468 3.43306,0.81883 z m 31.00833,-12.38814 c 0,-0.24988 -1.43701,-2.99428 -1.56786,-2.99428 -0.1529,0 -0.86851,1.74544 -0.86851,2.11837 0,0.1215 0.4236,0.38027 0.94133,0.57503 0.99852,0.37565 1.49504,0.47557 1.49504,0.30088 z m -2.80449,4.97959 c -1.05403,-0.42504 -0.69066,-2.21519 0.44965,-2.21519 1.12531,0 1.65332,1.46247 0.75514,2.09158 -0.55481,0.38861 -0.54909,0.38802 -1.20479,0.12361 z"
         style="fill:#f4f4f4;fill-opacity:0.99677417;stroke-width:0.22148807" />
    </g>
  </g>
</svg>
